{"title":"Projeto Thomaz Farkas 4 - Maurice Capovilla, Eduardo Escorel, Ma","uid":5564654,"size":1171567851,"categoryP":"video","categoryS":"movies","magnet":"?xt=urn:btih:461d9a493c2deb63d0aa3c96ae768799ec522fb1&amp;dn=Projeto+Thomaz+Farkas+4+-+Maurice+Capovilla%2C+Eduardo+Escorel%2C+Ma&amp;tr=udp%3A%2F%2Ftracker.openbittorrent.com%3A80&amp;tr=udp%3A%2F%2Fopen.demonii.com%3A1337&amp;tr=udp%3A%2F%2Ftracker.coppersurfer.tk%3A6969&amp;tr=udp%3A%2F%2Fexodus.desync.com%3A6969","seeders":3,"leechers":0,"uploader":"mfccorrea","files":4,"time":1273937337,"description":"Project Thomaz Farkas is a collection of 39 documentaries produced by Thomas Farkas  in the 1960s and 1970s, featuring various cultural events of Brazil linked to the specific reality of each region. The documentaries were organized in a box containing seven discs, and include a short interview with the participation of renowned photographer, producer and documentary filmmaker, exposing a broad universe of Brazilian culture.\n\nThe Disc 4 contains the following documetaries:\n\nEduardo Escorel - VisÃƒÂ£o de Juazeiro (1970)\nManuel HorÃƒÂ¡cio Gimenez - Nossa Escola de Samba (1965)\nMaurice Capovilla - Subterraneos do Futebol (1965)\n\nAll films have Portuguese audio, and no subtitles. There's a 300 dpi scan of the DVD cover included.\n\n   General\n      Complete name : Projeto Thomaz Farkas - Maurice Capovilla, Eduardo Escorel, Manuel HorÃƒÂ¡cio Gimenes.avi\n      Format : AVI\n      Format/Info : Audio Video Interleave\n      File size : 1.09 GiB\n      Duration : 1h 19mn\n      Overall bit rate : 1 958 Kbps\n      Writing application : VirtualDubMod 1.5.10.2 (build 2540/release)\n      Writing library : VirtualDubMod build 2540/release\n   Video #0\n      ID : 0\n      Format : MPEG-4 Visual\n      Format profile : AdvancedSimple@L5\n      Format settings, BVOP : Yes\n      Format settings, QPel : No\n      Format settings, GMC : No warppoints\n      Format settings, Matrix : Default (MPEG)\n      Muxing mode : Packed bitstream\n      Codec ID : XVID\n      Codec ID/Hint : XviD\n      Duration : 1h 19mn\n      Bit rate : 1 725 Kbps\n      Width : 640 pixels\n      Height : 464 pixels\n      Display aspect ratio : 1.379\n      Frame rate : 23.976 fps\n      Resolution : 24 bits\n      Colorimetry : 4:2:0\n      Scan type : Progressive\n      Bits/(Pixel*Frame) : 0.242\n      Stream size : 982 MiB (88%)\n      Writing library : XviD 1.2.0.dev47 (UTC 2006-11-01)\n   Audio #1\n      ID : 1\n      Format : AC-3\n      Format/Info : Audio Coding 3\n      Codec ID : 2000\n      Duration : 1h 19mn\n      Bit rate mode : Constant\n      Bit rate : 224 Kbps\n      Channel(s) : 2 channels\n      Channel positions : L R\n      Sampling rate : 48.0 KHz\n      Stream size : 128 MiB (11%)\n      Alignment : Split accross interleaves\n      Interleave, duration : 42 ms (1.00 video frame)\n      Interleave, preload duration : 500 ms\n\nEach film was ripped individually; the specs refer to the films assembled together.","torrent":{"xt":"urn:btih:461d9a493c2deb63d0aa3c96ae768799ec522fb1","amp;dn":"Projeto+Thomaz+Farkas+4+-+Maurice+Capovilla%2C+Eduardo+Escorel%2C+Ma","amp;tr":["udp%3A%2F%2Ftracker.openbittorrent.com%3A80","udp%3A%2F%2Fopen.demonii.com%3A1337","udp%3A%2F%2Ftracker.coppersurfer.tk%3A6969","udp%3A%2F%2Fexodus.desync.com%3A6969"],"infoHash":"461d9a493c2deb63d0aa3c96ae768799ec522fb1","infoHashBuffer":{"type":"Buffer","data":[70,29,154,73,60,45,235,99,208,170,60,150,174,118,135,153,236,82,47,177]},"announce":[],"urlList":[]}}